#!OML:ASF F:\VICON\USERDATA\INSTALL\rory3\rory3.ASF
:FULLY-SPECIFIED
:DEGREES
226
root -3.51002 14.8553 23.5042 -72.8571 13.9198 -192.673
lowerback 31.9215 2.65203 12.6795
upperback -2.79536 9.70637 14.064
thorax -21.0889 2.98562 5.08858
lowerneck -17.9301 -1.72059 -7.39975
upperneck -4.88694 -0.413864 3.64449
head 1.55603 0.234083 2.49682
rclavicle -1.4889e-013 -1.30602e-013
rhumerus 71.9247 -3.06964 -44.764
rradius 50.3121
rwrist 28.6682
rhand -33.6209 97.482
rfingers 7.12502
rthumb -6.81358 -1312.65
lclavicle -1.4889e-013 -1.30602e-013
lhumerus 84.4785 31.0226 27.9354
lradius 21.7822
lwrist -5.97166
lhand -43.4538 -52.9033
lfingers 7.12502
lthumb -16.2953 -23.5679
rfemur -109.085 -9.98842 -8.443
rtibia 45.1046
rfoot -14.6377 -18.229
rtoes -25.7996
lfemur 5.7462 14.4542 -22.8921
ltibia 59.503
lfoot 3.3861 -0.363007
ltoes -25.9551
227
root -3.49517 14.9414 23.214 -69.9119 15.2401 -193.161
lowerback 29.9984 2.84898 12.667
upperback -3.35391 9.70715 14.0911
thorax -20.8589 3.03688 5.20775
lowerneck -16.437 -1.32571 -7.12126
upperneck -5.62085 -0.0678799 3.04625
head 1.02106 0.380129 2.23834
rclavicle -1.05952e-013 -2.0614e-013
rhumerus 72.3779 -3.32797 -42.0687
rradius 50.2281
rwrist 27.7221
rhand -33.1424 98.0845
rfingers 7.12502
rthumb -6.35166 -1312.03
lclavicle -1.05952e-013 -2.0614e-013
lhumerus 82.3564 31.4131 25.7609
lradius 21.9808
lwrist -1.58085
lhand -44.3908 -54.0154
lfingers 7.12502
lthumb -17.1974 -24.7564
rfemur -108.563 -12.0448 -10.3976
rtibia 41.9322
rfoot -12.4679 -18.4708
rtoes -26.3313
lfemur 4.7636 14.2699 -22.4728
ltibia 62.8762
lfoot 3.33981 0.150367
ltoes -26.7431
228
root -3.47802 15.0348 22.8976 -67.0438 16.4562 -193.524
lowerback 28.3007 3.0044 12.9262
upperback -3.92779 9.76458 13.9985
thorax -20.6407 3.05537 5.0266
lowerneck -15.5364 -1.11574 -6.98013
upperneck -5.70663 0.081001 3.06793
head 0.830791 0.429801 2.21767
rclavicle -2.46493e-014 1.76421e-014
rhumerus 72.8982 -3.64767 -39.6974
rradius 49.9584
rwrist 26.903
rhand -32.0486 98.4821
rfingers 7.12502
rthumb -5.29566 -1311.6
lclavicle -2.46493e-014 1.76421e-014
lhumerus 82.307 31.5349 27.0081
lradius 21.7951
lwrist 0.301078
lhand -46.6619 -57.784
lfingers 7.12502
lthumb -19.3822 -28.73
rfemur -107.772 -14.005 -12.5148
rtibia 38.7769
rfoot -10.261 -18.9791
rtoes -26.1651
lfemur 4.61889 13.8837 -21.6291
ltibia 66.5837
lfoot 1.61695 1.45063
ltoes -12.4584
229
root -3.45808 15.123 22.6071 -64.5134 17.6949 -193.982
lowerback 26.5298 3.29888 13.0851
upperback -4.22998 9.86722 14.165
thorax -20.0841 3.13052 5.18487
lowerneck -15.3905 -1.04632 -6.95031
upperneck -5.43994 0.125329 3.10081
head 0.892071 0.431466 2.22678
rclavicle 1.07443e-013 4.34655e-014
rhumerus 73.6787 -4.31551 -36.8352
rradius 49.6608
rwrist 25.857
rhand -31.5978 99.5904
rfingers 7.12502
rthumb -4.86041 -1310.49
lclavicle 1.07443e-013 4.34655e-014
lhumerus 84.1891 31.8692 31.899
lradius 21.1987
lwrist -1.14359
lhand -47.4386 -62.6252
lfingers 7.12502
lthumb -20.1289 -33.648
rfemur -106.68 -16.0198 -14.8053
rtibia 35.7327
rfoot -7.78829 -19.7858
rtoes -25.7798
lfemur 3.15664 14.4336 -20.8178
ltibia 69.6054
lfoot 2.35589 1.37488
ltoes -24.0535
230
root -3.43239 15.2174 22.3108 -62.4526 19.3023 -194.543
lowerback 25.4966 3.16297 13.4629
upperback -4.62683 9.66795 13.8377
thorax -19.8575 3.01841 4.74376
lowerneck -14.5091 -0.664854 -5.84246
upperneck -6.00143 0.387982 2.43376
head 0.535733 0.530695 1.80119
rclavicle 1.39249e-013 -4.83047e-014
rhumerus 74.3701 -4.98498 -34.919
rradius 49.2882
rwrist 24.7463
rhand -32.6497 101.104
rfingers 7.12502
rthumb -5.87599 -1309
lclavicle 1.39249e-013 -4.83047e-014
lhumerus 88.1933 31.9316 39.4284
lradius 19.9855
lwrist -6.32552
lhand -48.3073 -67.8393
lfingers 7.12502
lthumb -20.9636 -38.9522
rfemur -104.949 -18.103 -17.4395
rtibia 32.7561
rfoot -5.09754 -20.8346
rtoes -24.8078
lfemur 2.81986 14.29 -19.8526
ltibia 72.8469
lfoot 2.21196 2.3171
ltoes -21.0025
231
root -3.40205 15.3104 22.0185 -60.469 20.5156 -195.12
lowerback 24.1933 3.27619 13.9601
upperback -4.85156 9.69381 13.8745
thorax -19.3211 3.00786 4.59307
lowerneck -13.3389 -0.195235 -4.03058
upperneck -7.31971 0.667827 0.230019
head -0.100993 0.632857 0.7649
rclavicle -4.57205e-014 -1.20265e-014
rhumerus 75.1073 -5.79226 -32.8664
rradius 48.81
rwrist 24.037
rhand -33.9077 101.649
rfingers 7.12502
rthumb -7.09049 -1308.49
lclavicle -4.57205e-014 -1.20265e-014
lhumerus 93.8316 31.3725 49.8981
lradius 18.3815
lwrist -14.0006
lhand -49.1101 -74.1895
lfingers 7.12502
lthumb -21.7348 -45.3897
rfemur -103.059 -19.939 -20.0201
rtibia 29.9884
rfoot -2.35643 -22.8113
rtoes -22.4372
lfemur 2.64573 14.2494 -18.1712
ltibia 75.8511
lfoot 1.64375 2.6901
ltoes -18.3453
232
root -3.36805 15.3976 21.7272 -58.3122 21.2774 -195.639
lowerback 22.6577 3.41125 14.7697
upperback -4.97619 9.71726 13.9737
thorax -18.4637 2.97809 4.37396
lowerneck -14.7072 -0.225378 -6.40862
upperneck -5.96431 1.07153 2.532
head 0.551047 0.885072 1.97145
rclavicle -1.18873e-013 3.47873e-014
rhumerus 76.102 -6.67305 -31.0517
rradius 48.1099
rwrist 23.6426
rhand -34.5735 101.358
rfingers 7.12502
rthumb -7.73314 -1308.8
lclavicle -1.18873e-013 3.47873e-014
lhumerus 98.4116 30.7426 58.5317
lradius 17.5136
lwrist -20.4858
lhand -48.4128 -79.9646
lfingers 7.12502
lthumb -21.065 -51.0888
rfemur -101.17 -21.5285 -22.7815
rtibia 27.5722
rfoot -0.364664 -25.8708
rtoes -19.9413
lfemur 2.26116 14.499 -15.8211
ltibia 78.8455
lfoot 1.49036 2.48775
ltoes -13.1676
233
root -3.33573 15.4882 21.4292 -56.4698 22.5512 -196.155
lowerback 20.9899 3.67855 14.9351
upperback -4.85982 9.64484 14.2576
thorax -17.3911 3.01923 4.7278
lowerneck -13.6013 0.284565 -4.42613
upperneck -7.84942 1.38055 -0.0249291
head -0.244352 1.02022 0.775696
rclavicle -1.75328e-013 1.86858e-014
rhumerus 77.05 -7.97449 -27.9505
rradius 47.3192
rwrist 22.6757
rhand -34.3821 100.228
rfingers 7.12502
rthumb -7.54843 -1309.93
lclavicle -1.75328e-013 1.86858e-014
lhumerus 81.5162 35.3358 35.3968
lradius 25.6375
lwrist -0.168055
lhand -47.8136 -76.9799
lfingers 7.12502
lthumb -20.4893 -48.041
rfemur -98.7146 -23.1126 -26.4995
rtibia 25.7461
rfoot 0.613664 -29.1529
rtoes -12.8816
lfemur 2.0747 14.4302 -13.8408
ltibia 81.6347
lfoot 1.47284 4.83385
ltoes -13.4848
234
root -3.29619 15.5755 21.1449 -55.1186 24.3635 -196.726
lowerback 19.936 3.64694 14.9438
upperback -4.78635 9.34076 14.131
thorax -16.6579 2.95372 4.72292
lowerneck -14.8088 0.111652 -5.89248
upperneck -7.3477 1.47532 1.18455
head 0.0991485 1.1121 1.4394
rclavicle 1.25234e-013 2.5842e-014
rhumerus 77.6566 -9.42498 -25.5898
rradius 46.462
rwrist 21.8521
rhand -34.4862 98.7079
rfingers 7.12502
rthumb -7.6489 -1311.45
lclavicle 1.25234e-013 2.5842e-014
lhumerus 85.3748 35.9642 41.9164
lradius 24.8408
lwrist -4.66328
lhand -48.2054 -80.2452
lfingers 7.12502
lthumb -20.8658 -51.3473
rfemur -96.3427 -24.6196 -29.7953
rtibia 24.8975
rfoot 3.51024 -32.1434
rtoes -11.7157
lfemur 2.2835 13.8901 -12.0545
ltibia 84.19
lfoot 0.288387 2.96291
ltoes -13.2662
235
root -3.25089 15.6607 20.8648 -53.9517 26.3688 -197.321
lowerback 19.0085 3.52977 14.8679
upperback -4.70817 8.94958 13.8359
thorax -15.9733 2.85286 4.58229
lowerneck -15.9615 0.176905 -6.10562
upperneck -6.97551 1.69626 1.51858
head 0.399184 1.23587 1.61693
rclavicle -1.09729e-013 -2.78299e-014
rhumerus 78.086 -10.9401 -24.0417
rradius 45.731
rwrist 21.3364
rhand -34.5147 98.3299
rfingers 7.12502
rthumb -7.67638 -1311.83
lclavicle -1.09729e-013 -2.78299e-014
lhumerus 85.3805 36.8375 42.659
lradius 25.8144
lwrist -4.63089
lhand -49.1698 -80.134
lfingers 7.12502
lthumb -21.7921 -51.3409
rfemur -94.4864 -25.8962 -32.5425
rtibia 25.443
rfoot 3.62568 -35.1437
rtoes -9.01986
lfemur 2.38923 13.1661 -10.3037
ltibia 86.5491
lfoot -0.352548 2.44107
ltoes -13.7321
236
root -3.20174 15.744 20.5906 -53.1046 28.3875 -198.177
lowerback 18.2038 3.31929 15.0909
upperback -4.40442 8.46559 13.3089
thorax -15.6082 2.78163 4.70129
lowerneck -16.9572 0.364806 -6.01665
upperneck -6.70921 2.01592 1.57098
head 0.638701 1.40104 1.65444
rclavicle 1.03368e-014 -2.70347e-014
rhumerus 78.6574 -12.3752 -22.5791
rradius 44.9978
rwrist 20.7974
rhand -33.7421 98.878
rfingers 7.12502
rthumb -6.93065 -1311.26
lclavicle 1.03368e-014 -2.70347e-014
lhumerus 81.3844 38.1054 38.4223
lradius 28.5643
lwrist -0.667906
lhand -49.7969 -76.5889
lfingers 7.12502
lthumb -22.3942 -47.867
rfemur -93.3228 -26.9939 -34.0932
rtibia 27.4261
rfoot 0.692334 -39.2223
rtoes -8.59145
lfemur 2.26826 12.2674 -8.31744
ltibia 88.7248
lfoot -0.876497 2.46869
ltoes -15.4854
